<svg width="15" height="28" viewBox="0 0 15 28" fill="none" xmlns="http://www.w3.org/2000/svg">
<rect x="-0.5" y="0.5" width="14" height="24.3846" rx="2.5" transform="matrix(-1 0 0 1 14 2.61536)" stroke="#3C3333"/>
<path d="M11 1.30774C11 0.755454 10.5523 0.307739 10 0.307739L5 0.307739C4.44772 0.307739 4 0.755455 4 1.30774V2.61543L11 2.61543V1.30774Z" fill="#3B3333"/>
<rect width="11" height="13.9622" rx="1" transform="matrix(-1 0 0 1 13 11.8462)" fill="#6FB384"/>
<path d="M6.58326 14.0473L6.31216 14.7259L6.01514 14.6072L6.6153 13.9671L6.58326 14.0473ZM7.79846 16.3965L8.06956 15.7179L8.42969 15.8617L7.77288 16.4605L7.79846 16.3965Z" stroke="#3B3333" stroke-width="2"/>
</svg>
